<svg width="20" height="25" viewBox="0 0 20 25" fill="none" xmlns="http://www.w3.org/2000/svg">
<path d="M11.4 6C12.0896 6 12.7509 6.27092 13.2385 6.75315C13.7261 7.23539 14 7.88944 14 8.57143V24L7.5 20.1429L1 24V8.57143C1 7.88944 1.27393 7.23539 1.76152 6.75315C2.24912 6.27092 2.91044 6 3.6 6H11.4Z" stroke="white" stroke-width="2" stroke-linecap="round" stroke-linejoin="round"/>
<path d="M6 2.28572C6.23474 1.89425 6.57252 1.56928 6.97928 1.34356C7.38604 1.11784 7.84741 0.999337 8.3169 1H16.3292C17.0376 1 17.7169 1.27092 18.2177 1.75316C18.7186 2.23539 19 2.88945 19 3.57143V19L17.6646 18.2286" stroke="white" stroke-width="2" stroke-linecap="round" stroke-linejoin="round"/>
</svg>
