<svg width="17" height="20" viewBox="0 0 17 20" fill="none" xmlns="http://www.w3.org/2000/svg">
<path fill-rule="evenodd" clip-rule="evenodd" d="M16.017 0.119082C16.305 0.233627 16.5344 0.414194 16.7048 0.661109C16.8748 0.907885 16.9601 1.18096 16.96 1.48065V18.5195C16.96 18.8192 16.8749 19.0923 16.7047 19.3389C16.5344 19.586 16.3049 19.7667 16.017 19.8811C15.851 19.9517 15.6589 19.9867 15.4404 19.9867C15.0214 19.9867 14.659 19.8456 14.3532 19.5641L8.57606 13.9589L2.79888 19.564C2.4844 19.8545 2.12215 20 1.71154 20C1.51071 20 1.3185 19.9604 1.13524 19.8812C0.847094 19.7668 0.617769 19.586 0.447495 19.3393C0.277268 19.0923 0.192017 18.8193 0.192017 18.5195V1.48047C0.192017 1.18077 0.277268 0.9077 0.447495 0.660924C0.617769 0.414148 0.847094 0.233349 1.13524 0.118897C1.31868 0.0396786 1.51071 0 1.71154 0H15.4405V0.000185198C15.6414 0.000185198 15.8336 0.0398638 16.017 0.119082ZM9.74207 12.7426L15.2834 18.1094V1.69214H1.86903V18.1094L7.41027 12.7426L8.57613 11.6192L9.74207 12.7426Z" fill="#9C9C9C"/>
</svg>
