<svg width="15" height="16" viewBox="0 0 15 16" fill="none" xmlns="http://www.w3.org/2000/svg">
<path d="M0.333008 4.23135C0.333008 4.49517 0.342365 10.7101 1.15384 12.3331C1.99728 14.0205 3.09571 15.6679 6.37825 15.6679C9.22855 15.6679 11.697 14.3134 13.3291 11.8543C14.9226 9.45369 14.4608 6.35179 13.0496 5.06908C12.6231 4.68179 12.2821 4.471 12.0612 4.35975L12.064 3.32241C12.064 2.19175 11.3121 1.37196 10.276 1.37196C9.86795 1.37196 9.50822 1.49672 9.22257 1.71895C8.95875 0.814429 8.06774 0.332275 7.22092 0.332275C6.4383 0.332275 5.76952 0.828984 5.51324 1.52375C5.19951 1.26669 4.79845 1.11204 4.36179 1.11204C3.40943 1.11204 2.62525 1.84762 2.54832 2.78073C2.31309 2.70665 2.08332 2.67157 1.95751 2.67157C1.0769 2.67183 0.333008 3.38609 0.333008 4.23135ZM1.11459 4.23135C1.11459 3.816 1.49044 3.45159 1.94062 3.45159C2.11737 3.45159 2.50699 3.5462 2.50699 3.61898V4.62123C2.50699 4.83645 2.68165 5.01112 2.89687 5.01112C3.11208 5.01112 3.28675 4.83645 3.28675 4.62123V2.93175C3.28675 2.35836 3.75305 1.89206 4.32644 1.89206C4.89982 1.89206 5.36612 2.35836 5.36612 2.93175V3.58155C5.36612 3.79676 5.54079 3.97143 5.756 3.97143C5.97122 3.97143 6.14588 3.79676 6.14588 3.58155V2.15198C6.14588 1.5786 6.61218 1.1123 7.18557 1.1123C7.70801 1.1123 8.48517 1.42368 8.48517 2.28194V3.32163C8.48517 3.53684 8.68947 3.71151 8.90469 3.71151C9.1199 3.71151 9.31536 3.53684 9.31536 3.32163C9.31536 2.78203 9.58152 2.15198 10.3015 2.15198C10.9981 2.15198 11.3443 2.7394 11.3443 3.32163V8.00047C11.3443 8.33629 11.4584 8.52031 11.6921 8.52031C11.9257 8.52031 12.037 8.32537 12.037 8.00047L12.0331 5.27649C12.0331 5.27649 12.3957 5.48963 12.5685 5.64688C14.0873 7.02706 13.6436 9.99016 12.692 11.4239C11.2094 13.6582 8.96499 14.8886 6.38449 14.8886C3.54069 14.8886 2.6489 13.5737 1.85459 11.9848C1.24871 10.773 1.11459 5.97698 1.11459 4.23135Z" fill="white"/>
</svg>
