<svg width="17" height="16" viewBox="0 0 17 16" fill="none" xmlns="http://www.w3.org/2000/svg">
<path d="M15.1845 6.04688L14.5657 5.42812C14.5541 5.4165 14.5403 5.40728 14.5251 5.40099C14.51 5.3947 14.4937 5.39146 14.4773 5.39146C14.4608 5.39146 14.4446 5.3947 14.4294 5.40099C14.4142 5.40728 14.4004 5.4165 14.3888 5.42812L13.9321 5.88484L12.2393 2.12109H4.42681L2.73399 5.88484L2.27728 5.42812C2.26567 5.4165 2.25188 5.40728 2.23671 5.40099C2.22153 5.3947 2.20527 5.39146 2.18884 5.39146C2.17241 5.39146 2.15615 5.3947 2.14097 5.40099C2.1258 5.40728 2.11201 5.4165 2.1004 5.42812L1.48165 6.04688C1.45823 6.07031 1.44507 6.1021 1.44507 6.13523C1.44507 6.16837 1.45823 6.20015 1.48165 6.22359L2.2404 6.98219L2.08306 7.33187V13.3787C2.08306 13.5114 2.13574 13.6385 2.2295 13.7323C2.32327 13.8261 2.45045 13.8787 2.58306 13.8787H3.45806C3.59067 13.8787 3.71784 13.8261 3.81161 13.7323C3.90538 13.6385 3.95806 13.5114 3.95806 13.3787V12.7225H12.7081V13.3787C12.7081 13.5114 12.7607 13.6385 12.8545 13.7323C12.9483 13.8261 13.0754 13.8787 13.2081 13.8787H14.0831C14.2157 13.8787 14.3428 13.8261 14.4366 13.7323C14.5304 13.6385 14.5831 13.5114 14.5831 13.3787V7.33187L14.4257 6.98219L15.1845 6.22359C15.2079 6.20015 15.221 6.16837 15.221 6.13523C15.221 6.1021 15.2079 6.07031 15.1845 6.04688ZM5.15431 3.24609H11.5118L12.9024 6.33984H3.76181L5.15431 3.24609ZM11.2237 11.5972H5.44243V10.9734H11.2237V11.5972ZM12.0987 11.5972V10.5984C12.0987 10.4658 12.046 10.3387 11.9522 10.2449C11.8585 10.1511 11.7313 10.0984 11.5987 10.0984H5.06743C4.93482 10.0984 4.80765 10.1511 4.71388 10.2449C4.62011 10.3387 4.56743 10.4658 4.56743 10.5984V11.5972H3.20806V7.57328L3.31306 7.33984H13.3531L13.4581 7.57328V11.5972H12.0987Z" fill="white"/>
<path d="M3.76978 8.65234C3.76978 8.85126 3.84879 9.04202 3.98945 9.18267C4.1301 9.32333 4.32086 9.40234 4.51978 9.40234C4.71869 9.40234 4.90945 9.32333 5.05011 9.18267C5.19076 9.04202 5.26978 8.85126 5.26978 8.65234C5.26978 8.45343 5.19076 8.26267 5.05011 8.12201C4.90945 7.98136 4.71869 7.90234 4.51978 7.90234C4.32086 7.90234 4.1301 7.98136 3.98945 8.12201C3.84879 8.26267 3.76978 8.45343 3.76978 8.65234ZM11.3956 8.65234C11.3956 8.85126 11.4746 9.04202 11.6152 9.18267C11.7559 9.32333 11.9466 9.40234 12.1456 9.40234C12.3445 9.40234 12.5352 9.32333 12.6759 9.18267C12.8165 9.04202 12.8956 8.85126 12.8956 8.65234C12.8956 8.45343 12.8165 8.26267 12.6759 8.12201C12.5352 7.98136 12.3445 7.90234 12.1456 7.90234C11.9466 7.90234 11.7559 7.98136 11.6152 8.12201C11.4746 8.26267 11.3956 8.45343 11.3956 8.65234Z" fill="white"/>
</svg>
