<svg width="17" height="16" viewBox="0 0 17 16" fill="none" xmlns="http://www.w3.org/2000/svg">
<path d="M12.1536 13.2915C12.1658 13.2362 12.1731 13.1791 12.1731 13.12C12.1731 12.7191 11.8757 12.3893 11.4904 12.3319C11.447 12.2112 11.3997 12.0947 11.3499 11.9746C11.0299 11.2015 10.595 10.148 10.5741 5.91987C11.0147 5.91939 11.3731 5.56083 11.3731 5.12003C11.3731 5.01939 11.3523 4.92387 11.3182 4.83507C11.5427 4.69331 11.6931 4.44451 11.6931 4.16003V2.56003V1.60003V1.28003H9.93312V2.24003H9.61312V1.28003H7.05312V2.24003H6.73312V1.28003H4.97312V1.60003V2.56003V4.16003C4.97312 4.44451 5.12352 4.69331 5.348 4.83507C5.31392 4.92387 5.29312 5.01939 5.29312 5.12003C5.29312 5.56083 5.65152 5.91939 6.09215 5.92003C6.0712 10.1482 5.63616 11.2016 5.31632 11.9747C5.26656 12.0949 5.21936 12.2114 5.17584 12.332C4.79056 12.3893 4.49312 12.7191 4.49312 13.12C4.49312 13.1791 4.50048 13.2362 4.51264 13.2915C4.04976 13.3599 3.69312 13.7584 3.69312 14.24C3.69312 14.7695 4.12368 15.2 4.65312 15.2H12.0131C12.5426 15.2 12.9731 14.7695 12.9731 14.24C12.9731 13.7584 12.6165 13.3599 12.1536 13.2915ZM5.13312 13.12C5.13312 13.0333 5.2064 12.96 5.29312 12.96H11.3731C11.4598 12.96 11.5331 13.0333 11.5331 13.12C11.5331 13.2067 11.4598 13.28 11.3731 13.28H5.29312C5.2064 13.28 5.13312 13.2067 5.13312 13.12ZM5.61312 1.92003H6.09312V2.88003H7.69312V1.92003H8.97311V2.88003H10.5731V1.92003H11.0531V2.56003V4.16003C11.0531 4.24675 10.9798 4.32003 10.8931 4.32003H5.77312C5.6864 4.32003 5.61312 4.24675 5.61312 4.16003V2.56003V1.92003ZM5.93312 5.12003C5.93312 5.03331 6.0064 4.96003 6.09312 4.96003H10.5731C10.6598 4.96003 10.7331 5.03331 10.7331 5.12003C10.7331 5.20675 10.6598 5.28003 10.5731 5.28003H6.09312C6.0064 5.28003 5.93312 5.20675 5.93312 5.12003ZM6.73232 5.92003H9.93392C9.95552 10.2783 10.4184 11.3973 10.7586 12.2194C10.7731 12.2546 10.7856 12.2864 10.7994 12.32H5.86687C5.88048 12.2866 5.89312 12.2546 5.90768 12.2194C6.24784 11.3973 6.71072 10.2783 6.73232 5.92003ZM12.0131 14.56H4.65312C4.47664 14.56 4.33312 14.4165 4.33312 14.24C4.33312 14.0635 4.47664 13.92 4.65312 13.92H12.0131C12.1896 13.92 12.3331 14.0635 12.3331 14.24C12.3331 14.4165 12.1896 14.56 12.0131 14.56Z" fill="white"/>
</svg>
