<svg width="17" height="16" viewBox="0 0 17 16" fill="none" xmlns="http://www.w3.org/2000/svg">
<g clip-path="url(#clip0_1070_5276)">
<path d="M15.693 3.03999H15.277V2.55999C15.277 2.39999 15.149 2.23999 14.957 2.23999C14.765 2.23999 14.637 2.36799 14.637 2.55999V3.03999H3.40503V2.55999C3.40503 2.39999 3.27703 2.23999 3.08503 2.23999C2.92503 2.23999 2.76503 2.36799 2.76503 2.55999V3.03999H2.25303C2.12503 3.03999 1.99703 3.13599 1.96503 3.26399L1.32503 5.50399C1.29303 5.59999 1.29303 5.66399 1.32503 5.75999L1.96503 6.94399C2.02903 7.03999 2.12503 7.10399 2.22103 7.10399H3.14903L1.42103 12.864C1.35703 13.088 1.38903 13.312 1.54903 13.504C1.70903 13.664 1.93303 13.76 2.15703 13.76H5.32503C5.67703 13.76 5.96503 13.536 6.02903 13.184L6.86103 9.59999H8.30103C9.22903 9.59999 9.96503 8.86399 9.96503 7.93599V7.07199H15.693C15.853 7.07199 16.013 6.94399 16.013 6.75199V3.35999C16.013 3.16799 15.885 3.03999 15.693 3.03999ZM6.79703 3.64799H13.261V4.41599H6.79703V3.64799ZM8.30103 8.99199H6.98903L7.24503 7.80799C7.43703 8.19199 7.82103 8.44799 8.26903 8.47999C8.42903 8.47999 8.55703 8.35199 8.58903 8.19199C8.58903 8.03199 8.46103 7.87199 8.30103 7.87199C8.04503 7.87199 7.82103 7.67999 7.75703 7.45599L7.66103 7.10399H9.32503V7.96799C9.35703 8.51199 8.87703 8.99199 8.30103 8.99199ZM15.405 6.46399H7.18103C7.02103 6.46399 6.92503 6.55999 6.89303 6.71999L5.45303 13.088C5.45303 13.152 5.38903 13.184 5.35703 13.184H2.15703C2.12503 13.184 2.09303 13.152 2.06103 13.152C2.06103 13.152 2.02903 13.088 2.02903 13.056L3.85303 6.91199C3.88503 6.81599 3.85303 6.71999 3.78903 6.62399C3.72503 6.55999 3.62903 6.49599 3.53303 6.49599H2.44503L2.12503 5.91999H2.89303C3.05303 5.91999 3.21303 5.79199 3.21303 5.59999C3.21303 5.43999 3.08503 5.27999 2.89303 5.27999H2.02903L2.50903 3.64799H6.18903V4.73599C6.18903 4.89599 6.31703 5.05599 6.50903 5.05599H13.613C13.773 5.05599 13.933 4.92799 13.933 4.73599V3.64799H15.437L15.405 6.46399Z" fill="white"/>
<path d="M4.94105 6.59201C4.78105 6.52801 4.58905 6.62401 4.55705 6.81601L3.30905 11.008C3.24505 11.168 3.34105 11.36 3.53305 11.392C3.56505 11.392 3.59705 11.392 3.62905 11.392C3.75705 11.392 3.88505 11.296 3.91705 11.168L5.16505 6.97601C5.19705 6.81601 5.10105 6.62401 4.94105 6.59201Z" fill="white"/>
<path d="M3.37298 11.9041C3.21298 11.8401 3.02098 11.9361 2.98898 12.0961V12.1281C2.92498 12.2881 3.02098 12.4801 3.21298 12.5121C3.24498 12.5121 3.27698 12.5121 3.30898 12.5121C3.43698 12.5121 3.56498 12.4161 3.59698 12.2881V12.2561C3.62898 12.1281 3.53298 11.9361 3.37298 11.9041Z" fill="white"/>
<path d="M4.20501 5.88805C4.39701 5.88805 4.55701 5.76005 4.55701 5.56805C4.55701 5.40805 4.42901 5.24805 4.23701 5.24805H4.20501C4.04501 5.24805 3.88501 5.37605 3.88501 5.56805C3.88501 5.76005 4.01301 5.88805 4.20501 5.88805Z" fill="white"/>
</g>
<defs>
<clipPath id="clip0_1070_5276">
<rect width="16" height="16" fill="white" transform="translate(0.333008)"/>
</clipPath>
</defs>
</svg>
