<svg width="17" height="16" viewBox="0 0 17 16" fill="none" xmlns="http://www.w3.org/2000/svg">
<path d="M15.7771 13.5851L15.6327 13.5147C15.5157 13.4539 15.408 13.3769 15.3127 13.2859L13.2314 11.2002C13.5314 10.9002 13.6999 10.4932 13.6999 10.069C13.6999 9.6447 13.5314 9.23779 13.2314 8.93773C13.1571 8.86341 13.0689 8.80445 12.9718 8.76423C12.8747 8.724 12.7707 8.7033 12.6656 8.7033C12.5605 8.7033 12.4564 8.724 12.3593 8.76423C12.2623 8.80445 12.174 8.86341 12.0998 8.93773L11.8313 9.20614L10.7713 8.07771L15.9239 3.23754C15.9931 3.17244 16.037 3.08481 16.0475 2.99034L16.3315 0.446251C16.3378 0.386923 16.3307 0.326938 16.3109 0.270688C16.291 0.214438 16.2588 0.163348 16.2166 0.121161C16.1744 0.0789744 16.1233 0.0467585 16.067 0.0268732C16.0108 0.00698781 15.9508 -6.33723e-05 15.8915 0.00623629L13.3474 0.290246C13.253 0.300969 13.1654 0.344755 13.1002 0.41385L8.33363 5.48322L3.56907 0.40985C3.50384 0.340755 3.41627 0.296969 3.32186 0.286246L0.777776 0.00223625C0.718448 -0.00406341 0.658462 0.00298759 0.602213 0.0228729C0.545963 0.0427583 0.494873 0.0749743 0.452686 0.117161C0.410499 0.159348 0.378283 0.210438 0.358398 0.266688C0.338513 0.322937 0.331462 0.382923 0.337761 0.442251L0.621771 2.98634C0.632291 3.08081 0.67611 3.16844 0.745375 3.23354L5.89915 8.0737L4.83831 9.20334L4.5699 8.93493C4.49561 8.86061 4.4074 8.80165 4.31032 8.76143C4.21323 8.7212 4.10917 8.7005 4.00408 8.7005C3.899 8.7005 3.79494 8.7212 3.69785 8.76143C3.60077 8.80165 3.51256 8.86061 3.43826 8.93493C3.1383 9.23499 2.96979 9.6419 2.96979 10.0662C2.96979 10.4904 3.1383 10.8974 3.43826 11.1974L1.359 13.2803C1.26588 13.3702 1.16074 13.4468 1.04658 13.5079L0.88658 13.5855C0.744275 13.6557 0.620954 13.7591 0.527033 13.887C0.433112 14.0149 0.371349 14.1635 0.346962 14.3203C0.321794 14.4767 0.334048 14.6368 0.382721 14.7876C0.431393 14.9383 0.515097 15.0754 0.626971 15.1875L1.14699 15.7076C1.33457 15.8946 1.58851 15.9999 1.85341 16.0004C1.90702 16.0004 1.96053 15.996 2.01342 15.9872C2.17065 15.9624 2.31958 15.9 2.44758 15.8054C2.57557 15.7107 2.67885 15.5866 2.74864 15.4436L2.81904 15.2987C2.87991 15.1819 2.95693 15.0741 3.04785 14.9787L5.13352 12.8975C5.2821 13.0461 5.45849 13.1639 5.65263 13.2443C5.84676 13.3248 6.05483 13.3661 6.26496 13.3661C6.47509 13.3661 6.68316 13.3248 6.87729 13.2443C7.07142 13.1639 7.24782 13.0461 7.3964 12.8975C7.54638 12.7474 7.63063 12.544 7.63063 12.3318C7.63063 12.1197 7.54638 11.9163 7.3964 11.7662L7.12799 11.4978L8.33363 10.3654L9.53967 11.4978L9.27126 11.7662C9.12128 11.9163 9.03702 12.1197 9.03702 12.3318C9.03702 12.544 9.12128 12.7474 9.27126 12.8975C9.41984 13.0461 9.59623 13.1639 9.79036 13.2443C9.9845 13.3248 10.1926 13.3661 10.4027 13.3661C10.6128 13.3661 10.8209 13.3248 11.015 13.2443C11.2092 13.1639 11.3856 13.0461 11.5341 12.8975L13.6142 14.9747C13.7043 15.0679 13.7811 15.1732 13.8422 15.2875L13.9198 15.4476C13.9899 15.5898 14.0932 15.713 14.221 15.8069C14.3487 15.9008 14.4972 15.9627 14.6538 15.9872C14.7067 15.996 14.7602 16.0004 14.8138 16.0004C15.0792 16.0002 15.3336 15.8949 15.5215 15.7076L16.0415 15.1875C16.1534 15.0754 16.2371 14.9383 16.2857 14.7876C16.3344 14.6368 16.3467 14.4767 16.3215 14.3203C16.2966 14.163 16.2341 14.014 16.1393 13.886C16.0446 13.758 15.9203 13.6548 15.7771 13.5851ZM13.5806 1.06467L15.4807 0.852665L15.2687 2.75313L10.2237 7.49449L8.88325 6.06764L13.5806 1.06467ZM2.47823 14.4183C2.32959 14.5727 2.20414 14.7479 2.10582 14.9383L2.03182 15.0907C2.01763 15.119 1.99694 15.1436 1.97143 15.1623C1.94593 15.181 1.91634 15.1934 1.8851 15.1985C1.85386 15.2036 1.82187 15.2012 1.79174 15.1915C1.76161 15.1818 1.73422 15.1651 1.71181 15.1427L1.19179 14.6227C1.16949 14.6003 1.15282 14.5729 1.14316 14.5428C1.13349 14.5127 1.1311 14.4807 1.13619 14.4495C1.14058 14.4188 1.15234 14.3897 1.17045 14.3645C1.18856 14.3394 1.21249 14.319 1.24019 14.3051L1.4078 14.2251C1.59534 14.1263 1.76777 14.0012 1.91981 13.8535L3.99988 11.7682L4.5659 12.3342L2.47823 14.4183ZM5.69914 12.3318L4.00188 10.6346C3.8519 10.4846 3.76765 10.2811 3.76765 10.069C3.76765 9.85683 3.8519 9.65338 4.00188 9.50335L6.83038 12.3318C6.67799 12.4773 6.47542 12.5584 6.26476 12.5584C6.0541 12.5584 5.85153 12.4773 5.69914 12.3318ZM6.56197 10.9318L5.40193 9.77176L6.48197 8.62412L7.75081 9.81616L6.56197 10.9318ZM1.3986 2.75353L1.18659 0.853065L3.08665 1.06507L11.2653 9.77216L10.1053 10.9322L1.3986 2.75353ZM9.83888 12.3318L12.6678 9.50335C12.8178 9.65338 12.902 9.85683 12.902 10.069C12.902 10.2811 12.8178 10.4846 12.6678 10.6346L10.9705 12.3318C10.818 12.478 10.6149 12.5596 10.4037 12.5596C10.1925 12.5596 9.98939 12.478 9.83688 12.3318H9.83888ZM15.4791 14.6219L14.9591 15.1419C14.9366 15.1642 14.9092 15.1809 14.8791 15.1906C14.849 15.2002 14.8171 15.2026 14.7858 15.1975C14.7552 15.1931 14.726 15.1814 14.7009 15.1633C14.6757 15.1452 14.6553 15.1212 14.6414 15.0935L14.5614 14.9259C14.4626 14.7383 14.3374 14.5658 14.1898 14.4135L12.105 12.3334L12.671 11.7674L14.757 13.8579C14.9117 14.0061 15.0868 14.1314 15.2771 14.2299L15.4295 14.3039C15.4579 14.3177 15.4826 14.3383 15.5014 14.3638C15.5201 14.3893 15.5324 14.419 15.5371 14.4503C15.5411 14.4818 15.5377 14.5137 15.527 14.5435C15.5162 14.5734 15.4986 14.6002 15.4755 14.6219H15.4791Z" fill="white"/>
</svg>
