<svg width="17" height="16" viewBox="0 0 17 16" fill="none" xmlns="http://www.w3.org/2000/svg">
<path d="M11.833 5.5C12.933 5.5 13.833 4.6 13.833 3.5C13.833 2.4 12.933 1.5 11.833 1.5C10.733 1.5 9.83301 2.4 9.83301 3.5C9.83301 4.6 10.733 5.5 11.833 5.5Z" fill="white"/>
<path d="M15.733 6.2001C15.583 6.0001 15.233 5.9501 15.033 6.1001L13.583 7.2501C13.183 7.6001 12.583 7.5501 12.233 7.1501L8.28301 3.2001C7.48301 2.4001 6.23301 2.4001 5.43301 3.2001L3.98301 4.6501C3.78301 4.8501 3.78301 5.1501 3.98301 5.3501C4.18301 5.5501 4.48301 5.5501 4.68301 5.3501L6.08301 3.9501C6.48301 3.5501 7.13301 3.5501 7.53301 3.9501L8.33301 4.7501L6.13301 7.0001C5.63301 7.5001 5.43301 8.1501 5.58301 8.8501C5.68301 9.4001 6.03301 9.8501 6.48301 10.1501L5.68301 10.9501C5.48301 11.1501 5.18301 11.1501 4.98301 10.9501L3.18301 9.1501C2.98301 8.9501 2.68301 8.9501 2.48301 9.1501C2.28301 9.3501 2.28301 9.6501 2.48301 9.8501L4.28301 11.6501C4.58301 11.9501 4.93301 12.1001 5.33301 12.1001C5.73301 12.1001 6.13301 11.9501 6.38301 11.6501L7.43301 10.6001L8.68301 11.1001C9.03301 11.2501 9.28301 11.6001 9.28301 12.0001V15.0001C9.28301 15.3001 9.48301 15.5001 9.78301 15.5001C10.083 15.5001 10.283 15.3001 10.283 15.0001V12.0001C10.283 11.2001 9.78301 10.4501 9.03301 10.1501L8.18301 9.8001L10.783 7.2001L11.483 7.9001C11.883 8.3001 12.383 8.5001 12.933 8.5001C13.383 8.5001 13.833 8.3501 14.183 8.0501L15.633 6.9001C15.883 6.7001 15.883 6.4001 15.733 6.2001Z" fill="white"/>
</svg>
