<svg width="14" height="14" viewBox="0 0 14 14" fill="none" xmlns="http://www.w3.org/2000/svg">
<path fill-rule="evenodd" clip-rule="evenodd" d="M5.62384 8.54278C6.34633 9.25201 7.32032 9.64624 8.33272 9.6392C9.34513 9.63217 10.3135 9.22446 11.0261 8.50526C11.7387 7.78606 12.1374 6.81391 12.1351 5.80148C12.1327 4.78905 11.7295 3.81876 11.0136 3.10287C10.2977 2.38697 9.32742 1.98374 8.315 1.9814C7.30257 1.97906 6.33042 2.37778 5.61122 3.09036C4.89201 3.80293 4.4843 4.77135 4.47727 5.78375C4.47024 6.79616 4.86446 7.77014 5.5737 8.49264L5.62384 8.54278ZM4.47065 8.99402C3.6648 8.00808 3.26869 6.75014 3.36427 5.48036C3.45984 4.21058 4.03978 3.0261 4.98414 2.17189C5.92849 1.31769 7.16503 0.859103 8.43801 0.890988C9.71098 0.922872 10.923 1.44278 11.8234 2.34319C12.7238 3.24361 13.2437 4.45563 13.2756 5.72861C13.3075 7.00158 12.8489 8.23812 11.9947 9.18248C11.1405 10.1268 9.95604 10.7068 8.68626 10.8023C7.41647 10.8979 6.15853 10.5018 5.17259 9.69596C5.20602 9.99679 4.9219 10.448 4.32024 11.0497L1.71303 13.6569C1.55346 13.8165 1.33704 13.9061 1.11137 13.9061C0.885706 13.9061 0.669282 13.8165 0.509711 13.6569C0.35014 13.4973 0.260494 13.2809 0.260494 13.0552C0.260494 12.8296 0.35014 12.6132 0.509711 12.4536L3.11691 9.84638C3.71857 9.24472 4.16982 8.9606 4.47065 8.99402Z" fill="white"/>
</svg>
