<svg width="17" height="16" viewBox="0 0 17 16" fill="none" xmlns="http://www.w3.org/2000/svg">
<path d="M6.87864 5.45455C7.2803 5.45455 7.60591 5.12893 7.60591 4.72727C7.60591 4.32561 7.2803 4 6.87864 4C6.47698 4 6.15137 4.32561 6.15137 4.72727C6.15137 5.12893 6.47698 5.45455 6.87864 5.45455Z" fill="white"/>
<path d="M9.78758 5.45455C10.1892 5.45455 10.5148 5.12893 10.5148 4.72727C10.5148 4.32561 10.1892 4 9.78758 4C9.38591 4 9.0603 4.32561 9.0603 4.72727C9.0603 5.12893 9.38591 5.45455 9.78758 5.45455Z" fill="white"/>
<path d="M8.33312 13.4546C8.13239 13.4546 7.96948 13.6175 7.96948 13.8182V15.6364C7.96948 15.8371 8.13239 16 8.33312 16C8.53385 16 8.69676 15.8371 8.69676 15.6364V13.8182C8.69676 13.6175 8.53385 13.4546 8.33312 13.4546Z" fill="white"/>
<path d="M10.1515 12.7273C9.95075 12.7273 9.78784 12.8902 9.78784 13.0909V14.9091C9.78784 15.1098 9.95075 15.2727 10.1515 15.2727C10.3522 15.2727 10.5151 15.1098 10.5151 14.9091V13.0909C10.5151 12.8902 10.3522 12.7273 10.1515 12.7273Z" fill="white"/>
<path d="M6.515 12.7273C6.31428 12.7273 6.15137 12.8902 6.15137 13.0909V14.9091C6.15137 15.1098 6.31428 15.2727 6.515 15.2727C6.71573 15.2727 6.87864 15.1098 6.87864 14.9091V13.0909C6.87864 12.8902 6.71573 12.7273 6.515 12.7273Z" fill="white"/>
<path d="M8.33299 6.18188C7.93117 6.18188 7.60571 6.50734 7.60571 6.90916V7.63643C7.60571 8.03825 7.93117 8.3637 8.33299 8.3637C8.7348 8.3637 9.06026 8.03825 9.06026 7.63643V6.90916C9.06026 6.50734 8.7348 6.18188 8.33299 6.18188ZM8.33299 8.00007C8.16499 8.00007 8.02935 7.88298 7.98789 7.7277C8.09044 7.67098 8.20717 7.63643 8.33299 7.63643C8.4588 7.63643 8.57553 7.67098 8.67808 7.7277C8.63662 7.88298 8.50099 8.00007 8.33299 8.00007Z" fill="white"/>
<path d="M12.1153 12.3633C11.6778 12.3633 11.248 12.204 10.9229 11.9036C10.5375 11.5476 9.91055 11.5476 9.52546 11.9036C8.86764 12.5109 7.79855 12.5109 7.14073 11.9036C6.75601 11.548 6.12873 11.5476 5.74364 11.9036C5.25601 12.3535 4.53382 12.4865 3.90364 12.2425C3.50801 12.0891 3.24219 11.6858 3.24219 11.2389V5.23345C3.24219 3.89127 3.7851 2.556 4.73128 1.57018C5.70328 0.557454 6.98146 0 8.33019 0C8.33128 0 8.33237 0 8.3331 0C9.69055 0.000727273 10.9676 0.530545 11.9291 1.492C12.8931 2.456 13.424 3.73418 13.424 5.09091V11.2389C13.424 11.6858 13.1582 12.0887 12.7626 12.2422C12.5527 12.3236 12.3331 12.3633 12.1153 12.3633ZM10.224 10.9062C10.6531 10.9062 11.0818 11.0607 11.4164 11.3695C11.7011 11.6327 12.1269 11.7087 12.4996 11.5644C12.6156 11.5193 12.6967 11.3855 12.6967 11.2389V5.09091C12.6967 3.92836 12.2415 2.83309 11.4149 2.00618C10.5906 1.18218 9.49637 0.728 8.3331 0.727273C8.33237 0.727273 8.33128 0.727273 8.33055 0.727273C7.1811 0.727273 6.08946 1.20545 5.25601 2.07382C4.43855 2.92545 3.96946 4.07709 3.96946 5.23345V11.2393C3.96946 11.3858 4.05055 11.5196 4.16655 11.5644C4.53964 11.7091 4.9651 11.6331 5.25019 11.3695C5.91891 10.752 6.96619 10.7524 7.63455 11.3695C8.02001 11.7255 8.64655 11.7255 9.03201 11.3695C9.36619 11.0607 9.79528 10.9062 10.224 10.9062Z" fill="white"/>
</svg>
