<svg width="40" height="40" viewBox="0 0 40 40" fill="none" xmlns="http://www.w3.org/2000/svg">
<g clip-path="url(#clip0_762_1723)">
<path d="M20 8.33337H25.8333C28.0434 8.33337 30.163 9.21135 31.7258 10.7742C33.2886 12.337 34.1666 14.4566 34.1666 16.6667C34.1666 18.8768 33.2886 20.9965 31.7258 22.5593C30.163 24.1221 28.0434 25 25.8333 25H16.6666L9.97495 32.045C9.40255 32.6477 8.64979 33.048 7.83009 33.1856C7.0104 33.3232 6.16819 33.1906 5.43039 32.8079C4.69259 32.4252 4.09917 31.813 3.73955 31.0637C3.37994 30.3143 3.27362 29.4684 3.43662 28.6534L6.15995 15.0317C6.53797 13.1425 7.55894 11.4426 9.04911 10.2213C10.5393 9.00009 12.4066 8.33292 14.3333 8.33337H20Z" fill="#6DCD9F" stroke="#6DCD9F" stroke-width="2" stroke-linecap="round" stroke-linejoin="round"/>
<path d="M23.3334 25L30.1167 32.14C30.688 32.7411 31.4387 33.1407 32.2564 33.279C33.074 33.4172 33.9145 33.2866 34.6516 32.9066C35.3887 32.5267 35.9827 31.918 36.3445 31.1719C36.7064 30.4257 36.8165 29.5824 36.6584 28.7683L33.9917 15.0483" fill="#6DCD9F"/>
<path d="M23.3334 25L30.1167 32.14C30.688 32.7411 31.4387 33.1407 32.2564 33.279C33.074 33.4172 33.9145 33.2866 34.6516 32.9066C35.3887 32.5267 35.9827 31.918 36.3445 31.1719C36.7064 30.4257 36.8165 29.5824 36.6584 28.7683L33.9917 15.0483" stroke="#6DCD9F" stroke-width="2" stroke-linecap="round" stroke-linejoin="round"/>
<path d="M13.3334 15V18.3333" stroke="white" stroke-width="2" stroke-linecap="round" stroke-linejoin="round"/>
<path d="M11.6666 16.6666H15" stroke="white" stroke-width="2" stroke-linecap="round" stroke-linejoin="round"/>
<path d="M23.3334 16.6666H26.6667" stroke="white" stroke-width="2" stroke-linecap="round" stroke-linejoin="round"/>
</g>
<defs>
<clipPath id="clip0_762_1723">
<rect width="40" height="40" rx="10" fill="white"/>
</clipPath>
</defs>
</svg>
