<svg width="51" height="51" viewBox="0 0 51 51" fill="none" xmlns="http://www.w3.org/2000/svg">
<g clip-path="url(#clip0_762_1752)">
<path d="M27.625 14.875C28.7522 14.875 29.8332 15.3228 30.6302 16.1198C31.4272 16.9168 31.875 17.9978 31.875 19.125V44.625L21.25 38.25L10.625 44.625V19.125C10.625 17.9978 11.0728 16.9168 11.8698 16.1198C12.6668 15.3228 13.7478 14.875 14.875 14.875H27.625Z" stroke="#6DCD9F" stroke-width="2" stroke-linecap="round" stroke-linejoin="round"/>
<path d="M19.6882 8.5C20.0618 7.853 20.5993 7.3159 21.2466 6.94283C21.8938 6.56976 22.628 6.3739 23.3751 6.375H36.1251C37.2523 6.375 38.3333 6.82277 39.1303 7.6198C39.9273 8.41683 40.3751 9.49783 40.3751 10.625V36.125L38.2501 34.85" stroke="#6DCD9F" stroke-width="2" stroke-linecap="round" stroke-linejoin="round"/>
</g>
<defs>
<clipPath id="clip0_762_1752">
<rect width="51" height="51" fill="white"/>
</clipPath>
</defs>
</svg>
