<svg width="36" height="27" viewBox="0 0 36 27" fill="none" xmlns="http://www.w3.org/2000/svg">
<path fill-rule="evenodd" clip-rule="evenodd" d="M23.4711 1H17.6378H11.9711C10.0444 0.999546 8.17711 1.66671 6.68693 2.88797C5.19675 4.10922 4.17579 5.8091 3.79777 7.69833L1.07444 21.32C0.911441 22.135 1.01776 22.9809 1.37737 23.7303C1.73698 24.4796 2.3304 25.0918 3.06821 25.4745C3.80601 25.8572 4.64822 25.9898 5.46791 25.8522C6.2876 25.7146 7.04037 25.3143 7.61277 24.7117L14.3044 17.6667H20.971L20.9709 17.6668L27.7543 24.8068C28.3255 25.4079 29.0763 25.8075 29.894 25.9457C30.7116 26.084 31.552 25.9533 32.2892 25.5734C33.0263 25.1935 33.6203 24.5848 33.9821 23.8386C34.3439 23.0925 34.4541 22.2491 34.2959 21.4351L31.7348 8.25794C31.4988 6.44458 30.6708 4.74791 29.3637 3.44078C27.8009 1.87797 25.6812 1 23.4711 1Z" fill="url(#paint0_linear_1054_5288)"/>
<path d="M11.9711 1L11.9709 2H11.9711V1ZM6.68693 2.88797L6.05307 2.11452L6.05307 2.11452L6.68693 2.88797ZM3.79777 7.69833L2.81721 7.50213L2.81718 7.50229L3.79777 7.69833ZM1.07444 21.32L2.05502 21.5161L2.05503 21.516L1.07444 21.32ZM1.37737 23.7303L2.27893 23.2976L2.27893 23.2976L1.37737 23.7303ZM3.06821 25.4745L3.52868 24.5868L3.52867 24.5868L3.06821 25.4745ZM5.46791 25.8522L5.30237 24.866L5.30237 24.866L5.46791 25.8522ZM7.61277 24.7117L6.88772 24.023L6.8877 24.023L7.61277 24.7117ZM14.3044 17.6667V16.6667C14.0303 16.6667 13.7682 16.7792 13.5794 16.978L14.3044 17.6667ZM20.971 17.6667L21.655 18.3962C21.9543 18.1156 22.0519 17.6805 21.901 17.2989C21.7501 16.9173 21.3814 16.6667 20.971 16.6667V17.6667ZM20.9709 17.6668L20.287 16.9372C20.0927 17.1194 19.9791 17.3716 19.9714 17.6378C19.9637 17.9041 20.0625 18.1624 20.246 18.3555L20.9709 17.6668ZM27.7543 24.8068L27.0293 25.4955L27.0294 25.4956L27.7543 24.8068ZM29.894 25.9457L29.7273 26.9317L29.7273 26.9317L29.894 25.9457ZM32.2892 25.5734L31.831 24.6845L31.831 24.6845L32.2892 25.5734ZM33.9821 23.8386L34.8819 24.275L34.8819 24.275L33.9821 23.8386ZM34.2959 21.4351L35.2776 21.2444L35.2776 21.2443L34.2959 21.4351ZM31.7348 8.25794L30.7432 8.38697C30.7458 8.40766 30.7492 8.42826 30.7532 8.44873L31.7348 8.25794ZM29.3637 3.44078L28.6566 4.14788L28.6566 4.14788L29.3637 3.44078ZM17.6378 2H23.4711V2.31941e-07H17.6378V2ZM11.9711 2H17.6378V2.31941e-07H11.9711V2ZM7.3208 3.66141C8.63215 2.58671 10.2754 1.9996 11.9709 2L11.9713 2.5975e-07C9.81346 -0.000508646 7.72207 0.746718 6.05307 2.11452L7.3208 3.66141ZM4.77833 7.89453C5.11099 6.23201 6.00944 4.73611 7.3208 3.66141L6.05307 2.11452C4.38407 3.48233 3.24058 5.38619 2.81721 7.50213L4.77833 7.89453ZM2.05503 21.516L4.77837 7.89438L2.81718 7.50229L0.093843 21.124L2.05503 21.516ZM2.27893 23.2976C2.01313 22.7438 1.93454 22.1185 2.05502 21.5161L0.093855 21.1239C-0.111662 22.1515 0.0223913 23.2181 0.475815 24.1629L2.27893 23.2976ZM3.52867 24.5868C2.98334 24.3039 2.54473 23.8515 2.27893 23.2976L0.475815 24.1629C0.929239 25.1078 1.67746 25.8796 2.60774 26.3622L3.52867 24.5868ZM5.30237 24.866C4.69651 24.9677 4.07401 24.8697 3.52868 24.5868L2.60774 26.3622C3.53801 26.8447 4.59992 27.0119 5.63345 26.8384L5.30237 24.866ZM6.8877 24.023C6.46462 24.4684 5.90823 24.7643 5.30237 24.866L5.63345 26.8384C6.66698 26.6649 7.61612 26.1602 8.33784 25.4003L6.8877 24.023ZM13.5794 16.978L6.88772 24.023L8.33783 25.4004L15.0295 18.3554L13.5794 16.978ZM20.971 16.6667H14.3044V18.6667H20.971V16.6667ZM20.2871 16.9371L20.287 16.9372L21.6549 18.3963L21.655 18.3962L20.2871 16.9371ZM20.246 18.3555L27.0293 25.4955L28.4793 24.118L21.6959 16.978L20.246 18.3555ZM27.0294 25.4956C27.7497 26.2535 28.6963 26.7574 29.7273 26.9317L30.0607 24.9597C29.4563 24.8575 28.9014 24.5622 28.4791 24.1179L27.0294 25.4956ZM29.7273 26.9317C30.7582 27.106 31.8179 26.9413 32.7473 26.4623L31.831 24.6845C31.2862 24.9653 30.665 25.0619 30.0607 24.9597L29.7273 26.9317ZM32.7473 26.4623C33.6767 25.9833 34.4257 25.2158 34.8819 24.275L33.0823 23.4023C32.8149 23.9538 32.3758 24.4037 31.831 24.6845L32.7473 26.4623ZM34.8819 24.275C35.3381 23.3342 35.477 22.2708 35.2776 21.2444L33.3143 21.6258C33.4312 22.2274 33.3498 22.8508 33.0823 23.4023L34.8819 24.275ZM35.2776 21.2443L32.7164 8.06715L30.7532 8.44873L33.3143 21.6259L35.2776 21.2443ZM28.6566 4.14788C29.8068 5.29814 30.5355 6.79121 30.7432 8.38697L32.7264 8.12891C32.4622 6.09795 31.5348 4.19769 30.0708 2.73367L28.6566 4.14788ZM23.4711 2C25.416 2 27.2813 2.77262 28.6566 4.14788L30.0708 2.73367C28.3204 0.983331 25.9465 2.31941e-07 23.4711 2.31941e-07V2Z" fill="url(#paint1_linear_1054_5288)"/>
<path d="M11.6665 8V11.3333" stroke="white" stroke-width="2" stroke-linecap="round" stroke-linejoin="round"/>
<path d="M10 9.66675H13.3333" stroke="white" stroke-width="2" stroke-linecap="round" stroke-linejoin="round"/>
<path d="M21.6665 9.66675H24.9998" stroke="white" stroke-width="2" stroke-linecap="round" stroke-linejoin="round"/>
<defs>
<linearGradient id="paint0_linear_1054_5288" x1="17.6831" y1="1" x2="17.6831" y2="25.9994" gradientUnits="userSpaceOnUse">
<stop stop-color="#8672E4"/>
<stop offset="1" stop-color="#6949FF"/>
</linearGradient>
<linearGradient id="paint1_linear_1054_5288" x1="17.6831" y1="1" x2="17.6831" y2="25.9994" gradientUnits="userSpaceOnUse">
<stop stop-color="#8672E4"/>
<stop offset="1" stop-color="#6949FF"/>
</linearGradient>
</defs>
</svg>
