<svg width="164" height="27" viewBox="0 0 164 27" fill="none" xmlns="http://www.w3.org/2000/svg">
<path d="M10.176 21.112L7.952 18.888C7.408 19.0373 6.85333 19.112 6.288 19.112C5.25333 19.112 4.30933 18.872 3.456 18.392C2.60267 17.9013 1.92533 17.224 1.424 16.36C0.933333 15.4853 0.688 14.504 0.688 13.416C0.688 12.328 0.933333 11.352 1.424 10.488C1.92533 9.61333 2.60267 8.936 3.456 8.456C4.30933 7.96533 5.25333 7.72 6.288 7.72C7.33333 7.72 8.28267 7.96533 9.136 8.456C9.98933 8.936 10.6613 9.608 11.152 10.472C11.6427 11.336 11.888 12.3173 11.888 13.416C11.888 14.4827 11.6533 15.4427 11.184 16.296C10.7147 17.1493 10.0693 17.8213 9.248 18.312L12.064 21.112H10.176ZM2.176 13.416C2.176 14.3013 2.352 15.08 2.704 15.752C3.06667 16.424 3.55733 16.9413 4.176 17.304C4.80533 17.6667 5.50933 17.848 6.288 17.848C7.06667 17.848 7.76533 17.6667 8.384 17.304C9.01333 16.9413 9.504 16.424 9.856 15.752C10.2187 15.08 10.4 14.3013 10.4 13.416C10.4 12.52 10.2187 11.7413 9.856 11.08C9.504 10.408 9.01867 9.89067 8.4 9.528C7.78133 9.16533 7.07733 8.984 6.288 8.984C5.49867 8.984 4.79467 9.16533 4.176 9.528C3.55733 9.89067 3.06667 10.408 2.704 11.08C2.352 11.7413 2.176 12.52 2.176 13.416ZM21.6174 10.232V19H20.1614V17.704C19.884 18.152 19.4947 18.504 18.9934 18.76C18.5027 19.0053 17.9587 19.128 17.3614 19.128C16.6787 19.128 16.0654 18.9893 15.5214 18.712C14.9774 18.424 14.5454 17.9973 14.2254 17.432C13.916 16.8667 13.7614 16.1787 13.7614 15.368V10.232H15.2014V15.176C15.2014 16.04 15.42 16.7067 15.8574 17.176C16.2947 17.6347 16.892 17.864 17.6494 17.864C18.428 17.864 19.0414 17.624 19.4894 17.144C19.9374 16.664 20.1614 15.9653 20.1614 15.048V10.232H21.6174ZM23.5318 14.584C23.5318 13.688 23.7131 12.904 24.0758 12.232C24.4384 11.5493 24.9344 11.0213 25.5638 10.648C26.2038 10.2747 26.9131 10.088 27.6918 10.088C28.4598 10.088 29.1264 10.2533 29.6918 10.584C30.2571 10.9147 30.6784 11.3307 30.9558 11.832V10.232H32.4278V19H30.9558V17.368C30.6678 17.88 30.2358 18.3067 29.6598 18.648C29.0944 18.9787 28.4331 19.144 27.6758 19.144C26.8971 19.144 26.1931 18.952 25.5638 18.568C24.9344 18.184 24.4384 17.6453 24.0758 16.952C23.7131 16.2587 23.5318 15.4693 23.5318 14.584ZM30.9558 14.6C30.9558 13.9387 30.8224 13.3627 30.5558 12.872C30.2891 12.3813 29.9264 12.008 29.4678 11.752C29.0198 11.4853 28.5238 11.352 27.9798 11.352C27.4358 11.352 26.9398 11.48 26.4918 11.736C26.0438 11.992 25.6864 12.3653 25.4198 12.856C25.1531 13.3467 25.0198 13.9227 25.0198 14.584C25.0198 15.256 25.1531 15.8427 25.4198 16.344C25.6864 16.8347 26.0438 17.2133 26.4918 17.48C26.9398 17.736 27.4358 17.864 27.9798 17.864C28.5238 17.864 29.0198 17.736 29.4678 17.48C29.9264 17.2133 30.2891 16.8347 30.5558 16.344C30.8224 15.8427 30.9558 15.2613 30.9558 14.6ZM39.1603 10.072C40.2269 10.072 41.0909 10.3973 41.7523 11.048C42.4136 11.688 42.7443 12.616 42.7443 13.832V19H41.3043V14.04C41.3043 13.1653 41.0856 12.4987 40.6483 12.04C40.2109 11.5707 39.6136 11.336 38.8563 11.336C38.0883 11.336 37.4749 11.576 37.0163 12.056C36.5683 12.536 36.3443 13.2347 36.3443 14.152V19H34.8883V10.232H36.3443V11.48C36.6323 11.032 37.0216 10.6853 37.5123 10.44C38.0136 10.1947 38.5629 10.072 39.1603 10.072ZM44.5786 14.584C44.5786 13.688 44.76 12.904 45.1226 12.232C45.4853 11.5493 45.9813 11.0213 46.6106 10.648C47.2506 10.2747 47.9653 10.088 48.7546 10.088C49.4373 10.088 50.072 10.248 50.6586 10.568C51.2453 10.8773 51.6933 11.288 52.0026 11.8V7.16H53.4746V19H52.0026V17.352C51.7146 17.8747 51.288 18.3067 50.7226 18.648C50.1573 18.9787 49.496 19.144 48.7386 19.144C47.96 19.144 47.2506 18.952 46.6106 18.568C45.9813 18.184 45.4853 17.6453 45.1226 16.952C44.76 16.2587 44.5786 15.4693 44.5786 14.584ZM52.0026 14.6C52.0026 13.9387 51.8693 13.3627 51.6026 12.872C51.336 12.3813 50.9733 12.008 50.5146 11.752C50.0666 11.4853 49.5706 11.352 49.0266 11.352C48.4826 11.352 47.9866 11.48 47.5386 11.736C47.0906 11.992 46.7333 12.3653 46.4666 12.856C46.2 13.3467 46.0666 13.9227 46.0666 14.584C46.0666 15.256 46.2 15.8427 46.4666 16.344C46.7333 16.8347 47.0906 17.2133 47.5386 17.48C47.9866 17.736 48.4826 17.864 49.0266 17.864C49.5706 17.864 50.0666 17.736 50.5146 17.48C50.9733 17.2133 51.336 16.8347 51.6026 16.344C51.8693 15.8427 52.0026 15.2613 52.0026 14.6ZM59.7591 19.144C58.9378 19.144 58.1911 18.9573 57.5191 18.584C56.8578 18.2107 56.3351 17.6827 55.9511 17C55.5778 16.3067 55.3911 15.5067 55.3911 14.6C55.3911 13.704 55.5831 12.9147 55.9671 12.232C56.3618 11.5387 56.8951 11.0107 57.5671 10.648C58.2391 10.2747 58.9911 10.088 59.8231 10.088C60.6551 10.088 61.4071 10.2747 62.0791 10.648C62.7511 11.0107 63.2791 11.5333 63.6631 12.216C64.0578 12.8987 64.2551 13.6933 64.2551 14.6C64.2551 15.5067 64.0525 16.3067 63.6471 17C63.2525 17.6827 62.7138 18.2107 62.0311 18.584C61.3485 18.9573 60.5911 19.144 59.7591 19.144ZM59.7591 17.864C60.2818 17.864 60.7725 17.7413 61.2311 17.496C61.6898 17.2507 62.0578 16.8827 62.3351 16.392C62.6231 15.9013 62.7671 15.304 62.7671 14.6C62.7671 13.896 62.6285 13.2987 62.3511 12.808C62.0738 12.3173 61.7111 11.9547 61.2631 11.72C60.8151 11.4747 60.3298 11.352 59.8071 11.352C59.2738 11.352 58.7831 11.4747 58.3351 11.72C57.8978 11.9547 57.5458 12.3173 57.2791 12.808C57.0125 13.2987 56.8791 13.896 56.8791 14.6C56.8791 15.3147 57.0071 15.9173 57.2631 16.408C57.5298 16.8987 57.8818 17.2667 58.3191 17.512C58.7565 17.7467 59.2365 17.864 59.7591 17.864Z" fill="white"/>
<path d="M117.054 17.816H120.958V19H115.598V7.848H117.054V17.816ZM121.96 14.584C121.96 13.688 122.142 12.904 122.504 12.232C122.867 11.5493 123.363 11.0213 123.992 10.648C124.632 10.2747 125.342 10.088 126.12 10.088C126.888 10.088 127.555 10.2533 128.12 10.584C128.686 10.9147 129.107 11.3307 129.384 11.832V10.232H130.856V19H129.384V17.368C129.096 17.88 128.664 18.3067 128.088 18.648C127.523 18.9787 126.862 19.144 126.104 19.144C125.326 19.144 124.622 18.952 123.992 18.568C123.363 18.184 122.867 17.6453 122.504 16.952C122.142 16.2587 121.96 15.4693 121.96 14.584ZM129.384 14.6C129.384 13.9387 129.251 13.3627 128.984 12.872C128.718 12.3813 128.355 12.008 127.896 11.752C127.448 11.4853 126.952 11.352 126.408 11.352C125.864 11.352 125.368 11.48 124.92 11.736C124.472 11.992 124.115 12.3653 123.848 12.856C123.582 13.3467 123.448 13.9227 123.448 14.584C123.448 15.256 123.582 15.8427 123.848 16.344C124.115 16.8347 124.472 17.2133 124.92 17.48C125.368 17.736 125.864 17.864 126.408 17.864C126.952 17.864 127.448 17.736 127.896 17.48C128.355 17.2133 128.718 16.8347 128.984 16.344C129.251 15.8427 129.384 15.2613 129.384 14.6ZM137.589 10.072C138.656 10.072 139.52 10.3973 140.181 11.048C140.842 11.688 141.173 12.616 141.173 13.832V19H139.733V14.04C139.733 13.1653 139.514 12.4987 139.077 12.04C138.64 11.5707 138.042 11.336 137.285 11.336C136.517 11.336 135.904 11.576 135.445 12.056C134.997 12.536 134.773 13.2347 134.773 14.152V19H133.317V10.232H134.773V11.48C135.061 11.032 135.45 10.6853 135.941 10.44C136.442 10.1947 136.992 10.072 137.589 10.072ZM147.279 17.912C147.919 17.912 148.453 17.7627 148.879 17.464C149.306 17.1653 149.599 16.7387 149.759 16.184H151.327C151.114 17.016 150.693 17.6987 150.063 18.232C149.445 18.7547 148.666 19.0533 147.727 19.128V19.928C148.357 19.9173 148.858 20.0507 149.231 20.328C149.605 20.6053 149.791 21 149.791 21.512C149.791 22.0133 149.61 22.4133 149.247 22.712C148.885 23.0107 148.415 23.16 147.839 23.16H145.999V22.216H147.551C147.903 22.216 148.159 22.1627 148.319 22.056C148.49 21.9493 148.575 21.768 148.575 21.512C148.575 21.2667 148.49 21.0907 148.319 20.984C148.159 20.8773 147.903 20.824 147.551 20.824H146.751V19.112C146.015 19.0373 145.365 18.808 144.799 18.424C144.234 18.0293 143.791 17.5067 143.471 16.856C143.162 16.1947 143.007 15.4427 143.007 14.6C143.007 13.6933 143.189 12.904 143.551 12.232C143.914 11.5493 144.415 11.0213 145.055 10.648C145.706 10.2747 146.447 10.088 147.279 10.088C148.357 10.088 149.242 10.3493 149.935 10.872C150.639 11.3947 151.103 12.12 151.327 13.048H149.759C149.61 12.5147 149.317 12.0933 148.879 11.784C148.453 11.4747 147.919 11.32 147.279 11.32C146.447 11.32 145.775 11.608 145.263 12.184C144.751 12.7493 144.495 13.5547 144.495 14.6C144.495 15.656 144.751 16.472 145.263 17.048C145.775 17.624 146.447 17.912 147.279 17.912ZM152.726 14.584C152.726 13.688 152.907 12.904 153.27 12.232C153.633 11.5493 154.129 11.0213 154.758 10.648C155.398 10.2747 156.107 10.088 156.886 10.088C157.654 10.088 158.321 10.2533 158.886 10.584C159.451 10.9147 159.873 11.3307 160.15 11.832V10.232H161.622V19H160.15V17.368C159.862 17.88 159.43 18.3067 158.854 18.648C158.289 18.9787 157.627 19.144 156.87 19.144C156.091 19.144 155.387 18.952 154.758 18.568C154.129 18.184 153.633 17.6453 153.27 16.952C152.907 16.2587 152.726 15.4693 152.726 14.584ZM160.15 14.6C160.15 13.9387 160.017 13.3627 159.75 12.872C159.483 12.3813 159.121 12.008 158.662 11.752C158.214 11.4853 157.718 11.352 157.174 11.352C156.63 11.352 156.134 11.48 155.686 11.736C155.238 11.992 154.881 12.3653 154.614 12.856C154.347 13.3467 154.214 13.9227 154.214 14.584C154.214 15.256 154.347 15.8427 154.614 16.344C154.881 16.8347 155.238 17.2133 155.686 17.48C156.134 17.736 156.63 17.864 157.174 17.864C157.718 17.864 158.214 17.736 158.662 17.48C159.121 17.2133 159.483 16.8347 159.75 16.344C160.017 15.8427 160.15 15.2613 160.15 14.6Z" fill="white"/>
<path fill-rule="evenodd" clip-rule="evenodd" d="M95.4711 1H89.6378H83.9711C82.0444 0.999546 80.1771 1.66671 78.6869 2.88797C77.1968 4.10922 76.1758 5.8091 75.7978 7.69833L73.0744 21.32C72.9114 22.135 73.0178 22.9809 73.3774 23.7303C73.737 24.4796 74.3304 25.0918 75.0682 25.4745C75.806 25.8572 76.6482 25.9898 77.4679 25.8522C78.2876 25.7146 79.0404 25.3143 79.6128 24.7117L86.3044 17.6667H92.971L92.9709 17.6668L99.7543 24.8068C100.326 25.4079 101.076 25.8075 101.894 25.9457C102.712 26.084 103.552 25.9533 104.289 25.5734C105.026 25.1935 105.62 24.5848 105.982 23.8386C106.344 23.0925 106.454 22.2491 106.296 21.4351L103.735 8.25794C103.499 6.44458 102.671 4.74791 101.364 3.44078C99.8009 1.87797 97.6812 1 95.4711 1Z" fill="url(#paint0_linear_1054_5287)"/>
<path d="M83.9711 1L83.9709 2H83.9711V1ZM78.6869 2.88797L78.0531 2.11452L78.0531 2.11452L78.6869 2.88797ZM75.7978 7.69833L74.8172 7.50213L74.8172 7.50229L75.7978 7.69833ZM73.0744 21.32L74.055 21.5161L74.055 21.516L73.0744 21.32ZM73.3774 23.7303L74.2789 23.2976L74.2789 23.2976L73.3774 23.7303ZM75.0682 25.4745L75.5287 24.5868L75.5287 24.5868L75.0682 25.4745ZM77.4679 25.8522L77.3024 24.866L77.3024 24.866L77.4679 25.8522ZM79.6128 24.7117L78.8877 24.023L78.8877 24.023L79.6128 24.7117ZM86.3044 17.6667V16.6667C86.0303 16.6667 85.7682 16.7792 85.5794 16.978L86.3044 17.6667ZM92.971 17.6667L93.655 18.3962C93.9543 18.1156 94.0519 17.6805 93.901 17.2989C93.7501 16.9173 93.3814 16.6667 92.971 16.6667V17.6667ZM92.9709 17.6668L92.287 16.9372C92.0927 17.1194 91.9791 17.3716 91.9714 17.6378C91.9637 17.9041 92.0625 18.1624 92.246 18.3555L92.9709 17.6668ZM99.7543 24.8068L99.0293 25.4955L99.0294 25.4956L99.7543 24.8068ZM101.894 25.9457L101.727 26.9317L101.727 26.9317L101.894 25.9457ZM104.289 25.5734L103.831 24.6845L103.831 24.6845L104.289 25.5734ZM105.982 23.8386L106.882 24.275L106.882 24.275L105.982 23.8386ZM106.296 21.4351L107.278 21.2444L107.278 21.2443L106.296 21.4351ZM103.735 8.25794L102.743 8.38697C102.746 8.40766 102.749 8.42826 102.753 8.44873L103.735 8.25794ZM101.364 3.44078L100.657 4.14788L100.657 4.14788L101.364 3.44078ZM89.6378 2H95.4711V2.31941e-07H89.6378V2ZM83.9711 2H89.6378V2.31941e-07H83.9711V2ZM79.3208 3.66141C80.6322 2.58671 82.2754 1.9996 83.9709 2L83.9713 2.5975e-07C81.8135 -0.000508646 79.7221 0.746718 78.0531 2.11452L79.3208 3.66141ZM76.7783 7.89453C77.111 6.23201 78.0094 4.73611 79.3208 3.66141L78.0531 2.11452C76.3841 3.48233 75.2406 5.38619 74.8172 7.50213L76.7783 7.89453ZM74.055 21.516L76.7784 7.89438L74.8172 7.50229L72.0938 21.124L74.055 21.516ZM74.2789 23.2976C74.0131 22.7438 73.9345 22.1185 74.055 21.5161L72.0939 21.1239C71.8883 22.1515 72.0224 23.2181 72.4758 24.1629L74.2789 23.2976ZM75.5287 24.5868C74.9833 24.3039 74.5447 23.8515 74.2789 23.2976L72.4758 24.1629C72.9292 25.1078 73.6775 25.8796 74.6077 26.3622L75.5287 24.5868ZM77.3024 24.866C76.6965 24.9677 76.074 24.8697 75.5287 24.5868L74.6077 26.3622C75.538 26.8447 76.5999 27.0119 77.6334 26.8384L77.3024 24.866ZM78.8877 24.023C78.4646 24.4684 77.9082 24.7643 77.3024 24.866L77.6334 26.8384C78.667 26.6649 79.6161 26.1602 80.3378 25.4003L78.8877 24.023ZM85.5794 16.978L78.8877 24.023L80.3378 25.4004L87.0295 18.3554L85.5794 16.978ZM92.971 16.6667H86.3044V18.6667H92.971V16.6667ZM92.2871 16.9371L92.287 16.9372L93.6549 18.3963L93.655 18.3962L92.2871 16.9371ZM92.246 18.3555L99.0293 25.4955L100.479 24.118L93.6959 16.978L92.246 18.3555ZM99.0294 25.4956C99.7497 26.2535 100.696 26.7574 101.727 26.9317L102.061 24.9597C101.456 24.8575 100.901 24.5622 100.479 24.1179L99.0294 25.4956ZM101.727 26.9317C102.758 27.106 103.818 26.9413 104.747 26.4623L103.831 24.6845C103.286 24.9653 102.665 25.0619 102.061 24.9597L101.727 26.9317ZM104.747 26.4623C105.677 25.9833 106.426 25.2158 106.882 24.275L105.082 23.4023C104.815 23.9538 104.376 24.4037 103.831 24.6845L104.747 26.4623ZM106.882 24.275C107.338 23.3342 107.477 22.2708 107.278 21.2444L105.314 21.6258C105.431 22.2274 105.35 22.8508 105.082 23.4023L106.882 24.275ZM107.278 21.2443L104.716 8.06715L102.753 8.44873L105.314 21.6259L107.278 21.2443ZM100.657 4.14788C101.807 5.29814 102.536 6.79121 102.743 8.38697L104.726 8.12891C104.462 6.09795 103.535 4.19769 102.071 2.73367L100.657 4.14788ZM95.4711 2C97.416 2 99.2813 2.77262 100.657 4.14788L102.071 2.73367C100.32 0.983331 97.9465 2.31941e-07 95.4711 2.31941e-07V2Z" fill="url(#paint1_linear_1054_5287)"/>
<path d="M83.6665 8V11.3333" stroke="white" stroke-width="2" stroke-linecap="round" stroke-linejoin="round"/>
<path d="M82 9.66675H85.3333" stroke="white" stroke-width="2" stroke-linecap="round" stroke-linejoin="round"/>
<path d="M93.6665 9.66675H96.9998" stroke="white" stroke-width="2" stroke-linecap="round" stroke-linejoin="round"/>
<defs>
<linearGradient id="paint0_linear_1054_5287" x1="89.6831" y1="1" x2="89.6831" y2="25.9994" gradientUnits="userSpaceOnUse">
<stop stop-color="#8672E4"/>
<stop offset="1" stop-color="#6949FF"/>
</linearGradient>
<linearGradient id="paint1_linear_1054_5287" x1="89.6831" y1="1" x2="89.6831" y2="25.9994" gradientUnits="userSpaceOnUse">
<stop stop-color="#8672E4"/>
<stop offset="1" stop-color="#6949FF"/>
</linearGradient>
</defs>
</svg>
