<svg width="162" height="40" viewBox="0 0 162 40" fill="none" xmlns="http://www.w3.org/2000/svg">
<path d="M10.176 29.112L7.952 26.888C7.408 27.0373 6.85333 27.112 6.288 27.112C5.25333 27.112 4.30933 26.872 3.456 26.392C2.60267 25.9013 1.92533 25.224 1.424 24.36C0.933333 23.4853 0.688 22.504 0.688 21.416C0.688 20.328 0.933333 19.352 1.424 18.488C1.92533 17.6133 2.60267 16.936 3.456 16.456C4.30933 15.9653 5.25333 15.72 6.288 15.72C7.33333 15.72 8.28267 15.9653 9.136 16.456C9.98933 16.936 10.6613 17.608 11.152 18.472C11.6427 19.336 11.888 20.3173 11.888 21.416C11.888 22.4827 11.6533 23.4427 11.184 24.296C10.7147 25.1493 10.0693 25.8213 9.248 26.312L12.064 29.112H10.176ZM2.176 21.416C2.176 22.3013 2.352 23.08 2.704 23.752C3.06667 24.424 3.55733 24.9413 4.176 25.304C4.80533 25.6667 5.50933 25.848 6.288 25.848C7.06667 25.848 7.76533 25.6667 8.384 25.304C9.01333 24.9413 9.504 24.424 9.856 23.752C10.2187 23.08 10.4 22.3013 10.4 21.416C10.4 20.52 10.2187 19.7413 9.856 19.08C9.504 18.408 9.01867 17.8907 8.4 17.528C7.78133 17.1653 7.07733 16.984 6.288 16.984C5.49867 16.984 4.79467 17.1653 4.176 17.528C3.55733 17.8907 3.06667 18.408 2.704 19.08C2.352 19.7413 2.176 20.52 2.176 21.416ZM21.6174 18.232V27H20.1614V25.704C19.884 26.152 19.4947 26.504 18.9934 26.76C18.5027 27.0053 17.9587 27.128 17.3614 27.128C16.6787 27.128 16.0654 26.9893 15.5214 26.712C14.9774 26.424 14.5454 25.9973 14.2254 25.432C13.916 24.8667 13.7614 24.1787 13.7614 23.368V18.232H15.2014V23.176C15.2014 24.04 15.42 24.7067 15.8574 25.176C16.2947 25.6347 16.892 25.864 17.6494 25.864C18.428 25.864 19.0414 25.624 19.4894 25.144C19.9374 24.664 20.1614 23.9653 20.1614 23.048V18.232H21.6174ZM23.5318 22.584C23.5318 21.688 23.7131 20.904 24.0758 20.232C24.4384 19.5493 24.9344 19.0213 25.5638 18.648C26.2038 18.2747 26.9131 18.088 27.6918 18.088C28.4598 18.088 29.1264 18.2533 29.6918 18.584C30.2571 18.9147 30.6784 19.3307 30.9558 19.832V18.232H32.4278V27H30.9558V25.368C30.6678 25.88 30.2358 26.3067 29.6598 26.648C29.0944 26.9787 28.4331 27.144 27.6758 27.144C26.8971 27.144 26.1931 26.952 25.5638 26.568C24.9344 26.184 24.4384 25.6453 24.0758 24.952C23.7131 24.2587 23.5318 23.4693 23.5318 22.584ZM30.9558 22.6C30.9558 21.9387 30.8224 21.3627 30.5558 20.872C30.2891 20.3813 29.9264 20.008 29.4678 19.752C29.0198 19.4853 28.5238 19.352 27.9798 19.352C27.4358 19.352 26.9398 19.48 26.4918 19.736C26.0438 19.992 25.6864 20.3653 25.4198 20.856C25.1531 21.3467 25.0198 21.9227 25.0198 22.584C25.0198 23.256 25.1531 23.8427 25.4198 24.344C25.6864 24.8347 26.0438 25.2133 26.4918 25.48C26.9398 25.736 27.4358 25.864 27.9798 25.864C28.5238 25.864 29.0198 25.736 29.4678 25.48C29.9264 25.2133 30.2891 24.8347 30.5558 24.344C30.8224 23.8427 30.9558 23.2613 30.9558 22.6ZM39.1603 18.072C40.2269 18.072 41.0909 18.3973 41.7523 19.048C42.4136 19.688 42.7443 20.616 42.7443 21.832V27H41.3043V22.04C41.3043 21.1653 41.0856 20.4987 40.6483 20.04C40.2109 19.5707 39.6136 19.336 38.8563 19.336C38.0883 19.336 37.4749 19.576 37.0163 20.056C36.5683 20.536 36.3443 21.2347 36.3443 22.152V27H34.8883V18.232H36.3443V19.48C36.6323 19.032 37.0216 18.6853 37.5123 18.44C38.0136 18.1947 38.5629 18.072 39.1603 18.072ZM44.5786 22.584C44.5786 21.688 44.76 20.904 45.1226 20.232C45.4853 19.5493 45.9813 19.0213 46.6106 18.648C47.2506 18.2747 47.9653 18.088 48.7546 18.088C49.4373 18.088 50.072 18.248 50.6586 18.568C51.2453 18.8773 51.6933 19.288 52.0026 19.8V15.16H53.4746V27H52.0026V25.352C51.7146 25.8747 51.288 26.3067 50.7226 26.648C50.1573 26.9787 49.496 27.144 48.7386 27.144C47.96 27.144 47.2506 26.952 46.6106 26.568C45.9813 26.184 45.4853 25.6453 45.1226 24.952C44.76 24.2587 44.5786 23.4693 44.5786 22.584ZM52.0026 22.6C52.0026 21.9387 51.8693 21.3627 51.6026 20.872C51.336 20.3813 50.9733 20.008 50.5146 19.752C50.0666 19.4853 49.5706 19.352 49.0266 19.352C48.4826 19.352 47.9866 19.48 47.5386 19.736C47.0906 19.992 46.7333 20.3653 46.4666 20.856C46.2 21.3467 46.0666 21.9227 46.0666 22.584C46.0666 23.256 46.2 23.8427 46.4666 24.344C46.7333 24.8347 47.0906 25.2133 47.5386 25.48C47.9866 25.736 48.4826 25.864 49.0266 25.864C49.5706 25.864 50.0666 25.736 50.5146 25.48C50.9733 25.2133 51.336 24.8347 51.6026 24.344C51.8693 23.8427 52.0026 23.2613 52.0026 22.6ZM59.7591 27.144C58.9378 27.144 58.1911 26.9573 57.5191 26.584C56.8578 26.2107 56.3351 25.6827 55.9511 25C55.5778 24.3067 55.3911 23.5067 55.3911 22.6C55.3911 21.704 55.5831 20.9147 55.9671 20.232C56.3618 19.5387 56.8951 19.0107 57.5671 18.648C58.2391 18.2747 58.9911 18.088 59.8231 18.088C60.6551 18.088 61.4071 18.2747 62.0791 18.648C62.7511 19.0107 63.2791 19.5333 63.6631 20.216C64.0578 20.8987 64.2551 21.6933 64.2551 22.6C64.2551 23.5067 64.0525 24.3067 63.6471 25C63.2525 25.6827 62.7138 26.2107 62.0311 26.584C61.3485 26.9573 60.5911 27.144 59.7591 27.144ZM59.7591 25.864C60.2818 25.864 60.7725 25.7413 61.2311 25.496C61.6898 25.2507 62.0578 24.8827 62.3351 24.392C62.6231 23.9013 62.7671 23.304 62.7671 22.6C62.7671 21.896 62.6285 21.2987 62.3511 20.808C62.0738 20.3173 61.7111 19.9547 61.2631 19.72C60.8151 19.4747 60.3298 19.352 59.8071 19.352C59.2738 19.352 58.7831 19.4747 58.3351 19.72C57.8978 19.9547 57.5458 20.3173 57.2791 20.808C57.0125 21.2987 56.8791 21.896 56.8791 22.6C56.8791 23.3147 57.0071 23.9173 57.2631 24.408C57.5298 24.8987 57.8818 25.2667 58.3191 25.512C58.7565 25.7467 59.2365 25.864 59.7591 25.864Z" fill="white"/>
<g clip-path="url(#clip0_762_1760)">
<path d="M89.0001 8.33337H94.8334C97.0435 8.33337 99.1632 9.21135 100.726 10.7742C102.289 12.337 103.167 14.4566 103.167 16.6667C103.167 18.8768 102.289 20.9965 100.726 22.5593C99.1632 24.1221 97.0435 25 94.8334 25H85.6667L78.9751 32.045C78.4027 32.6477 77.6499 33.048 76.8302 33.1856C76.0105 33.3232 75.1683 33.1906 74.4305 32.8079C73.6927 32.4252 73.0993 31.813 72.7397 31.0637C72.3801 30.3143 72.2737 29.4684 72.4367 28.6534L75.1601 15.0317C75.5381 13.1425 76.5591 11.4426 78.0492 10.2213C79.5394 9.00009 81.4067 8.33292 83.3334 8.33337H89.0001Z" fill="#6DCD9F" stroke="#6DCD9F" stroke-width="2" stroke-linecap="round" stroke-linejoin="round"/>
<path d="M92.3333 25L99.1166 32.14C99.6878 32.7411 100.439 33.1407 101.256 33.279C102.074 33.4172 102.914 33.2866 103.651 32.9066C104.389 32.5267 104.983 31.918 105.344 31.1719C105.706 30.4257 105.816 29.5824 105.658 28.7683L102.992 15.0483" fill="#6DCD9F"/>
<path d="M92.3333 25L99.1166 32.14C99.6878 32.7411 100.439 33.1407 101.256 33.279C102.074 33.4172 102.914 33.2866 103.651 32.9066C104.389 32.5267 104.983 31.918 105.344 31.1719C105.706 30.4257 105.816 29.5824 105.658 28.7683L102.992 15.0483" stroke="#6DCD9F" stroke-width="2" stroke-linecap="round" stroke-linejoin="round"/>
<path d="M82.3333 15V18.3333" stroke="white" stroke-width="2" stroke-linecap="round" stroke-linejoin="round"/>
<path d="M80.6667 16.6666H84.0001" stroke="white" stroke-width="2" stroke-linecap="round" stroke-linejoin="round"/>
<path d="M92.3333 16.6666H95.6666" stroke="white" stroke-width="2" stroke-linecap="round" stroke-linejoin="round"/>
</g>
<path d="M115.688 25.816H119.592V27H114.232V15.848H115.688V25.816ZM120.594 22.584C120.594 21.688 120.776 20.904 121.138 20.232C121.501 19.5493 121.997 19.0213 122.626 18.648C123.266 18.2747 123.976 18.088 124.754 18.088C125.522 18.088 126.189 18.2533 126.754 18.584C127.32 18.9147 127.741 19.3307 128.018 19.832V18.232H129.49V27H128.018V25.368C127.73 25.88 127.298 26.3067 126.722 26.648C126.157 26.9787 125.496 27.144 124.738 27.144C123.96 27.144 123.256 26.952 122.626 26.568C121.997 26.184 121.501 25.6453 121.138 24.952C120.776 24.2587 120.594 23.4693 120.594 22.584ZM128.018 22.6C128.018 21.9387 127.885 21.3627 127.618 20.872C127.352 20.3813 126.989 20.008 126.53 19.752C126.082 19.4853 125.586 19.352 125.042 19.352C124.498 19.352 124.002 19.48 123.554 19.736C123.106 19.992 122.749 20.3653 122.482 20.856C122.216 21.3467 122.082 21.9227 122.082 22.584C122.082 23.256 122.216 23.8427 122.482 24.344C122.749 24.8347 123.106 25.2133 123.554 25.48C124.002 25.736 124.498 25.864 125.042 25.864C125.586 25.864 126.082 25.736 126.53 25.48C126.989 25.2133 127.352 24.8347 127.618 24.344C127.885 23.8427 128.018 23.2613 128.018 22.6ZM136.223 18.072C137.289 18.072 138.153 18.3973 138.815 19.048C139.476 19.688 139.807 20.616 139.807 21.832V27H138.367V22.04C138.367 21.1653 138.148 20.4987 137.711 20.04C137.273 19.5707 136.676 19.336 135.919 19.336C135.151 19.336 134.537 19.576 134.079 20.056C133.631 20.536 133.407 21.2347 133.407 22.152V27H131.951V18.232H133.407V19.48C133.695 19.032 134.084 18.6853 134.575 18.44C135.076 18.1947 135.625 18.072 136.223 18.072ZM145.913 25.912C146.553 25.912 147.086 25.7627 147.513 25.464C147.94 25.1653 148.233 24.7387 148.393 24.184H149.961C149.748 25.016 149.326 25.6987 148.697 26.232C148.078 26.7547 147.3 27.0533 146.361 27.128V27.928C146.99 27.9173 147.492 28.0507 147.865 28.328C148.238 28.6053 148.425 29 148.425 29.512C148.425 30.0133 148.244 30.4133 147.881 30.712C147.518 31.0107 147.049 31.16 146.473 31.16H144.633V30.216H146.185C146.537 30.216 146.793 30.1627 146.953 30.056C147.124 29.9493 147.209 29.768 147.209 29.512C147.209 29.2667 147.124 29.0907 146.953 28.984C146.793 28.8773 146.537 28.824 146.185 28.824H145.385V27.112C144.649 27.0373 143.998 26.808 143.433 26.424C142.868 26.0293 142.425 25.5067 142.105 24.856C141.796 24.1947 141.641 23.4427 141.641 22.6C141.641 21.6933 141.822 20.904 142.185 20.232C142.548 19.5493 143.049 19.0213 143.689 18.648C144.34 18.2747 145.081 18.088 145.913 18.088C146.99 18.088 147.876 18.3493 148.569 18.872C149.273 19.3947 149.737 20.12 149.961 21.048H148.393C148.244 20.5147 147.95 20.0933 147.513 19.784C147.086 19.4747 146.553 19.32 145.913 19.32C145.081 19.32 144.409 19.608 143.897 20.184C143.385 20.7493 143.129 21.5547 143.129 22.6C143.129 23.656 143.385 24.472 143.897 25.048C144.409 25.624 145.081 25.912 145.913 25.912ZM151.36 22.584C151.36 21.688 151.541 20.904 151.904 20.232C152.267 19.5493 152.763 19.0213 153.392 18.648C154.032 18.2747 154.741 18.088 155.52 18.088C156.288 18.088 156.955 18.2533 157.52 18.584C158.085 18.9147 158.507 19.3307 158.784 19.832V18.232H160.256V27H158.784V25.368C158.496 25.88 158.064 26.3067 157.488 26.648C156.923 26.9787 156.261 27.144 155.504 27.144C154.725 27.144 154.021 26.952 153.392 26.568C152.763 26.184 152.267 25.6453 151.904 24.952C151.541 24.2587 151.36 23.4693 151.36 22.584ZM158.784 22.6C158.784 21.9387 158.651 21.3627 158.384 20.872C158.117 20.3813 157.755 20.008 157.296 19.752C156.848 19.4853 156.352 19.352 155.808 19.352C155.264 19.352 154.768 19.48 154.32 19.736C153.872 19.992 153.515 20.3653 153.248 20.856C152.981 21.3467 152.848 21.9227 152.848 22.584C152.848 23.256 152.981 23.8427 153.248 24.344C153.515 24.8347 153.872 25.2133 154.32 25.48C154.768 25.736 155.264 25.864 155.808 25.864C156.352 25.864 156.848 25.736 157.296 25.48C157.755 25.2133 158.117 24.8347 158.384 24.344C158.651 23.8427 158.784 23.2613 158.784 22.6Z" fill="white"/>
<defs>
<clipPath id="clip0_762_1760">
<rect x="69" width="40" height="40" rx="10" fill="white"/>
</clipPath>
</defs>
</svg>
